<?xml version="1.0" encoding="UTF-8"?>
<svg width="256px" height="256px" viewBox="0 0 256 256" version="1.1" xmlns="http://www.w3.org/2000/svg" xmlns:xlink="http://www.w3.org/1999/xlink">
    <!-- Generator: Sketch 54.1 (76490) - https://sketchapp.com -->
    <title>AsosLarge</title>
    <desc>Created with Sketch.</desc>
    <g id="AsosLarge" stroke="none" stroke-width="1" fill="none" fill-rule="evenodd">
        <rect fill="#0B0B0A" x="0" y="0" width="256" height="256"></rect>
        <path d="M160.123046,139.904536 C157.603048,142.625392 154.366759,144.007341 150.505816,144.007341 C146.643346,144.007341 143.407058,142.625392 140.888587,139.904536 C138.483134,137.312806 137.100953,133.168497 137.100953,128.53843 C137.100953,124.019043 138.498407,119.93161 140.929823,117.321433 C143.474258,114.600577 146.695274,113.21248 150.502762,113.201719 C154.316359,113.21248 157.537375,114.600577 160.080282,117.321433 C162.514753,119.93161 163.909152,124.019043 163.909152,128.53843 C163.909152,133.168497 162.528499,137.312806 160.123046,139.904536 L160.123046,139.904536 Z M126.309251,128.53843 C126.309251,128.74749 126.318415,128.953476 126.324524,129.159462 C122.460527,125.619275 116.873767,124.301889 113.460315,123.614757 C107.145047,122.274313 102.320396,121.047622 102.320396,116.522086 C102.320396,113.329307 105.161121,111.006588 110.618062,111.404725 C115.604604,111.769043 117.704603,114.837307 118.280384,117.797967 C118.362857,118.283724 118.585839,118.637282 119.135656,118.641894 L128.103796,118.718754 C128.146559,118.718754 128.183214,118.714142 128.221396,118.711068 C126.956815,121.679414 126.309251,124.984408 126.309251,128.53843 L126.309251,128.53843 Z M111.056389,145.143337 C106.718938,145.143337 101.940105,143.592295 100.838942,137.59104 C100.745778,137.017662 100.476979,136.780932 100.040179,136.768635 L91.3698577,136.651807 L91.3698577,121.225938 C92.5092024,125.746863 96.2830907,128.876616 104.44483,130.725875 C109.907881,132.041724 119.384602,132.877965 119.384602,138.522588 C119.384602,142.457837 116.505695,145.235569 111.056389,145.143337 L111.056389,145.143337 Z M67.871256,144.01349 C60.8763518,144.01349 54.4679199,138.47186 54.4679199,128.544579 C54.4679199,120.755553 59.2727166,113.207868 67.9170742,113.207868 C71.6619443,113.207868 81.1569922,114.499122 81.1569922,128.544579 C81.1569922,142.626929 71.2434718,144.01349 67.8697287,144.01349 L67.871256,144.01349 Z M174.442745,124.755365 C176.43278,127.42703 180.024923,129.405415 185.860628,130.727412 C191.322151,132.043261 200.800399,132.879502 200.800399,138.524125 C200.800399,142.459374 197.919965,145.237106 192.472187,145.144874 C188.136263,145.144874 183.354375,143.593832 182.25474,137.592577 C182.163103,137.019199 181.894303,136.78247 181.455976,136.770172 L173.422528,136.662567 C174.270163,134.14616 174.702381,131.420693 174.702381,128.539967 C174.70196,127.27394 174.615211,126.009435 174.442745,124.755365 L174.442745,124.755365 Z M191.879606,153 C201.49989,153 212.838354,149.39525 211.95101,137.703256 C210.970501,127.324037 200.239891,124.695413 194.876112,123.616294 C188.559317,122.27585 183.734666,121.049159 183.734666,116.523623 C183.734666,113.330845 186.575391,111.008125 192.03386,111.406262 C197.020402,111.77058 199.1204,114.838844 199.696182,117.799504 C199.778655,118.285262 200.003163,118.638819 200.551454,118.643431 L209.519593,118.720291 C210.202284,118.724903 210.414574,118.368271 210.329047,117.879439 C208.572685,107.060578 199.592327,104 191.32826,104 C183.076412,104 173.133873,106.33348 172.428274,116.665046 C172.403837,117.06472 172.394674,117.458244 172.394674,117.844083 C171.08122,115.095558 169.187403,112.571464 166.746823,110.336366 C162.241372,106.247396 156.624067,104.056877 150.49818,104.003074 L150.295053,104.003074 C147.3688,104.003074 144.505166,104.545708 141.782041,105.621753 C139.014095,106.7237 136.467267,108.321005 134.264809,110.336366 C131.954047,112.451562 130.128958,114.825009 128.824668,117.402905 C126.881978,106.976032 118.051294,104 109.910936,104 C102.335668,104 93.3339291,105.972236 91.3698577,114.299285 L91.3698577,106.033724 C91.3690154,105.592857 91.0136949,105.235913 90.5756765,105.235914 L82.1298642,105.235914 C81.6918466,105.236762 81.3372094,105.594394 81.3372102,106.035262 L81.3372102,108.264211 C81.3372102,108.63929 81.0882649,108.769952 80.7843379,108.551669 C77.7801945,106.358075 73.335834,104.004612 67.9873287,104.004612 C64.981658,104.004612 62.1119146,104.536485 59.4559892,105.58486 C56.7985365,106.636309 54.2724292,108.236542 51.9540308,110.342515 C49.3149054,112.759004 47.3050159,115.513678 45.9869804,118.529678 C44.668945,121.545677 44,124.915234 44,128.543042 C44,131.929508 44.5925814,135.105377 45.7594169,137.975342 C46.9262525,140.845307 48.7024694,143.500063 51.0407223,145.867361 C53.377448,148.234659 55.9921371,150.033191 58.8068987,151.21684 C61.6216604,152.395878 64.7235491,152.993851 68.0316195,152.993851 C73.7161246,152.993851 77.9817944,150.557379 80.7767015,148.342264 C81.0852104,148.105534 81.3372102,148.233122 81.3372102,148.620498 L81.3372102,150.961664 C81.3372102,151.401305 81.6945918,151.761011 82.1313915,151.761011 L90.5772037,151.761011 C91.0148728,151.759321 91.3690209,151.402183 91.3698577,150.961664 L91.3698577,143.075794 C95.3514549,152.498871 105.497121,152.998463 110.463808,152.998463 C118.766057,152.998463 128.340523,150.308351 130.240449,142.056626 C131.153825,143.42232 132.195643,144.696386 133.351501,145.861212 C137.878334,150.4467 143.810257,152.912379 150.513453,152.986165 L150.788362,152.986165 C153.971196,152.986165 157.042539,152.371282 159.916864,151.155352 C162.818755,149.920361 165.450079,148.121302 167.660132,145.861212 C169.313422,144.20231 170.72536,142.31645 171.85402,140.259631 C174.864272,152.408175 186.459318,152.998463 191.879606,152.998463 L191.879606,153 Z" id="Shape" fill="#FFFFFF"></path>
    </g>
</svg>